<svg width="512" height="512" viewBox="0 0 512 512" fill="none" xmlns="http://www.w3.org/2000/svg">
<rect width="512" height="512" rx="256" fill="#17191C"/>
<path d="M260.776 392.12C235.859 392.12 212.819 386.829 191.656 376.248C170.835 365.667 154.792 350.648 143.528 331.192L178.344 306.104C185.853 321.805 196.776 334.093 211.112 342.968C225.789 351.843 243.368 356.28 263.848 356.28C281.939 356.28 296.104 352.867 306.344 346.04C316.584 338.872 321.704 329.656 321.704 318.392C321.704 311.224 319.315 304.739 314.536 298.936C310.099 292.792 301.395 288.355 288.424 285.624L226.984 272.824C202.067 267.704 184.147 259.171 173.224 247.224C162.643 235.277 157.352 220.429 157.352 202.68C157.352 188.685 161.277 175.885 169.128 164.28C177.32 152.675 188.755 143.459 203.432 136.632C218.451 129.464 236.029 125.88 256.168 125.88C281.427 125.88 302.76 130.829 320.168 140.728C337.576 150.627 350.547 164.621 359.08 182.712L324.776 205.24C318.973 190.221 309.587 179.299 296.616 172.472C283.645 165.304 270.163 161.72 256.168 161.72C243.88 161.72 233.299 163.427 224.424 166.84C215.891 170.253 209.235 175.032 204.456 181.176C200.019 186.979 197.8 193.635 197.8 201.144C197.8 208.653 200.36 215.651 205.48 222.136C210.6 228.28 220.157 232.717 234.152 235.448L298.152 248.76C322.045 253.539 338.771 261.389 348.328 272.312C357.885 283.235 362.664 296.547 362.664 312.248C362.664 328.291 358.397 342.456 349.864 354.744C341.331 366.691 329.384 375.907 314.024 382.392C298.664 388.877 280.915 392.12 260.776 392.12Z" fill="white"/>
</svg>
