<svg width="512" height="512" viewBox="0 0 512 512" fill="none" xmlns="http://www.w3.org/2000/svg">
<path d="M228.273 155.199C225.105 153.278 222.596 150.697 220.803 147.395C219.01 144.093 218.054 140.431 218.054 136.468C218.054 132.506 218.95 128.904 220.803 125.602C222.596 122.3 225.105 119.718 228.273 117.797C231.44 115.876 234.906 114.915 238.73 114.915C241.419 114.915 243.809 115.276 245.781 115.996C247.753 116.716 249.785 117.917 251.817 119.538C252.235 119.838 252.534 120.199 252.654 120.559C252.773 120.919 252.893 121.279 252.893 121.759C252.893 122.48 252.654 123.08 252.116 123.561C251.578 124.041 250.98 124.281 250.323 124.281C249.666 124.281 249.008 124.041 248.47 123.561C247.036 122.3 245.602 121.399 244.168 120.859C242.794 120.319 241.001 120.018 238.79 120.018C235.981 120.018 233.471 120.739 231.081 122.24C228.751 123.681 226.898 125.722 225.524 128.243C224.149 130.765 223.492 133.527 223.492 136.468C223.492 139.47 224.149 142.232 225.524 144.753C226.898 147.275 228.751 149.256 231.081 150.697C233.412 152.138 235.981 152.918 238.79 152.918C242.196 152.918 245.483 151.717 248.65 149.376C249.247 148.956 249.845 148.716 250.443 148.716C251.1 148.716 251.697 148.956 252.116 149.436C252.534 149.916 252.773 150.577 252.773 151.357C252.773 152.138 252.474 152.798 251.936 153.338C248.112 156.46 243.69 158.021 238.85 158.021C234.906 158.081 231.44 157.121 228.273 155.199Z" fill="black"/>
<path d="M238.73 158.981C234.786 158.981 231.081 157.961 227.795 155.98C224.508 153.998 221.879 151.237 219.967 147.815C218.054 144.393 217.098 140.55 217.098 136.468C217.098 132.385 218.054 128.603 219.967 125.181C221.879 121.759 224.508 119.057 227.795 117.016C231.081 115.035 234.786 114.014 238.73 114.014C241.539 114.014 243.989 114.375 246.081 115.155C248.172 115.876 250.264 117.136 252.355 118.877C252.893 119.298 253.251 119.718 253.49 120.258C253.67 120.738 253.789 121.219 253.789 121.819C253.789 122.78 253.431 123.68 252.714 124.281C251.339 125.541 249.307 125.541 247.814 124.281C246.439 123.08 245.065 122.239 243.75 121.699C242.495 121.219 240.762 120.919 238.671 120.919C236.101 120.919 233.651 121.639 231.5 122.96C229.289 124.341 227.556 126.262 226.241 128.603C224.926 131.005 224.269 133.586 224.269 136.408C224.269 139.23 224.926 141.871 226.241 144.213C227.556 146.554 229.289 148.475 231.5 149.856C233.651 151.237 236.101 151.897 238.671 151.897C241.898 151.897 245.005 150.756 247.933 148.535C249.666 147.274 251.518 147.514 252.654 148.715C253.251 149.376 253.55 150.216 253.55 151.237C253.55 152.257 253.192 153.158 252.415 153.878L252.355 153.938C248.411 157.36 243.81 158.981 238.73 158.981ZM238.73 115.936C235.085 115.936 231.739 116.836 228.751 118.697C225.763 120.498 223.373 123.02 221.64 126.142C219.907 129.264 219.011 132.746 219.011 136.528C219.011 140.31 219.907 143.852 221.64 146.974C223.373 150.096 225.763 152.618 228.751 154.419C231.739 156.22 235.085 157.12 238.73 157.12C243.332 157.12 247.574 155.619 251.22 152.678C251.578 152.317 251.757 151.897 251.757 151.357C251.757 150.816 251.638 150.396 251.339 150.096C250.801 149.556 250.025 149.496 249.128 150.156C245.842 152.618 242.376 153.878 238.73 153.878C235.802 153.878 233.053 153.098 230.544 151.537C228.094 149.976 226.122 147.875 224.628 145.233C223.194 142.592 222.476 139.65 222.476 136.528C222.476 133.406 223.194 130.464 224.628 127.823C226.062 125.181 228.034 123.02 230.544 121.459C232.994 119.898 235.743 119.118 238.73 119.118C241.061 119.118 242.973 119.418 244.467 120.018C245.961 120.618 247.455 121.579 249.009 122.9C249.785 123.5 250.742 123.56 251.459 122.9C251.757 122.6 251.937 122.299 251.937 121.819C251.937 121.459 251.877 121.219 251.817 120.979C251.757 120.859 251.638 120.618 251.279 120.378C249.307 118.757 247.395 117.617 245.483 116.956C243.571 116.296 241.3 115.936 238.73 115.936Z" fill="black"/>
<path d="M291.257 155.319C288.03 153.518 285.52 150.936 283.727 147.634C281.934 144.332 281.038 140.61 281.038 136.468C281.038 132.325 281.934 128.603 283.727 125.361C285.52 122.119 288.03 119.538 291.257 117.736C294.483 115.935 298.188 114.975 302.312 114.975C306.435 114.975 310.08 115.875 313.307 117.736C316.534 119.538 319.044 122.119 320.836 125.361C322.629 128.603 323.526 132.325 323.526 136.468C323.526 140.61 322.629 144.332 320.836 147.634C319.044 150.936 316.534 153.458 313.307 155.319C310.08 157.18 306.435 158.081 302.252 158.081C298.188 158.081 294.483 157.18 291.257 155.319ZM310.498 150.816C312.948 149.375 314.801 147.394 316.175 144.873C317.55 142.351 318.207 139.589 318.207 136.468C318.207 133.406 317.55 130.584 316.175 128.063C314.801 125.541 312.948 123.56 310.498 122.119C308.108 120.678 305.359 119.958 302.252 119.958C299.204 119.958 296.455 120.678 294.005 122.119C291.555 123.56 289.703 125.541 288.328 128.063C286.954 130.584 286.297 133.346 286.297 136.468C286.297 139.529 286.954 142.351 288.328 144.873C289.703 147.394 291.555 149.375 294.005 150.816C296.455 152.257 299.145 152.977 302.192 152.977C305.359 153.038 308.048 152.257 310.498 150.816Z" fill="black"/>
<path d="M302.312 158.981C298.009 158.981 294.185 158.02 290.779 156.099C287.432 154.178 284.743 151.476 282.891 148.054C281.038 144.632 280.082 140.73 280.082 136.468C280.082 132.145 281.038 128.243 282.891 124.881C284.743 121.459 287.373 118.757 290.779 116.896C294.125 114.975 298.009 114.014 302.312 114.014C306.555 114.014 310.439 114.975 313.785 116.896C317.132 118.817 319.821 121.519 321.673 124.881C323.526 128.243 324.482 132.145 324.482 136.468C324.482 140.79 323.526 144.692 321.673 148.054C319.821 151.476 317.132 154.178 313.785 156.099C310.439 158.02 306.614 158.981 302.312 158.981ZM302.312 115.935C298.368 115.935 294.783 116.836 291.735 118.577C288.687 120.318 286.237 122.779 284.564 125.841C282.891 128.963 281.995 132.565 281.995 136.528C281.995 140.49 282.831 144.092 284.564 147.214C286.237 150.336 288.687 152.797 291.735 154.538C294.783 156.279 298.368 157.18 302.312 157.18C306.256 157.18 309.841 156.279 312.889 154.538C315.937 152.797 318.327 150.336 320.06 147.214C321.793 144.092 322.629 140.49 322.629 136.528C322.629 132.565 321.733 128.963 320.06 125.841C318.327 122.719 315.937 120.318 312.889 118.577C309.782 116.836 306.256 115.935 302.312 115.935ZM302.312 153.938C299.145 153.938 296.217 153.157 293.647 151.657C291.078 150.096 289.046 147.994 287.612 145.353C286.178 142.711 285.46 139.769 285.46 136.528C285.46 133.286 286.178 130.344 287.612 127.702C289.046 125.061 291.078 122.959 293.587 121.459C296.157 119.958 299.025 119.177 302.252 119.177C305.479 119.177 308.407 119.958 310.917 121.459C313.487 122.959 315.459 125.061 316.893 127.702C318.327 130.344 319.044 133.286 319.044 136.528C319.044 139.769 318.327 142.711 316.893 145.353C315.459 147.994 313.427 150.096 310.857 151.657C308.407 153.157 305.479 153.938 302.312 153.938ZM302.312 120.978C299.444 120.978 296.814 121.639 294.544 123.019C292.273 124.34 290.48 126.201 289.225 128.603C287.97 130.944 287.313 133.646 287.313 136.528C287.313 139.469 287.97 142.111 289.225 144.452C290.48 146.794 292.273 148.655 294.544 150.036C296.814 151.416 299.384 152.077 302.252 152.077C305.121 152.077 307.69 151.416 309.961 150.036C312.232 148.655 314.024 146.794 315.279 144.452C316.534 142.111 317.191 139.409 317.191 136.528C317.191 133.646 316.534 130.944 315.279 128.603C314.024 126.261 312.232 124.4 309.961 123.019C307.81 121.639 305.18 120.978 302.312 120.978Z" fill="black"/>
<path d="M354.48 156.7C353.942 156.16 353.703 155.499 353.703 154.719V118.337C353.703 117.556 353.942 116.896 354.48 116.356C355.018 115.815 355.675 115.575 356.392 115.575C357.169 115.575 357.827 115.815 358.364 116.356C358.902 116.896 359.141 117.556 359.141 118.337V151.957H378.503C379.279 151.957 379.937 152.197 380.475 152.737C381.012 153.278 381.251 153.938 381.251 154.719C381.251 155.499 381.012 156.16 380.475 156.7C379.937 157.24 379.279 157.48 378.503 157.48H356.333C355.675 157.54 355.018 157.24 354.48 156.7Z" fill="black"/>
<path d="M378.622 158.44H356.452C355.436 158.44 354.54 158.08 353.823 157.36C353.106 156.639 352.807 155.739 352.807 154.718V118.336C352.807 117.316 353.166 116.415 353.883 115.695C354.6 114.974 355.496 114.614 356.452 114.614C357.468 114.614 358.364 114.974 359.082 115.695C359.799 116.415 360.157 117.316 360.157 118.336V150.996H378.622C379.638 150.996 380.534 151.356 381.251 152.077C381.969 152.797 382.327 153.697 382.327 154.718C382.327 155.739 381.969 156.639 381.251 157.36C380.534 158.08 379.638 158.44 378.622 158.44ZM356.452 116.475C355.974 116.475 355.556 116.655 355.197 117.016C354.839 117.376 354.66 117.796 354.66 118.336V154.718C354.66 155.258 354.839 155.679 355.197 156.039C355.556 156.399 355.974 156.579 356.452 156.579H378.622C379.16 156.579 379.578 156.399 379.937 156.039C380.295 155.679 380.475 155.258 380.475 154.718C380.475 154.178 380.295 153.758 379.937 153.397C379.578 153.037 379.16 152.857 378.622 152.857H359.261C358.723 152.857 358.305 152.437 358.305 151.896V118.276C358.305 117.736 358.125 117.316 357.767 116.956C357.408 116.595 356.99 116.475 356.452 116.475Z" fill="black"/>
<path d="M417.882 156.46C415.253 155.199 413.162 153.398 411.668 151.177C410.174 148.895 409.457 146.314 409.457 143.432V118.337C409.457 117.497 409.696 116.836 410.233 116.296C410.771 115.756 411.429 115.516 412.205 115.516C413.042 115.516 413.699 115.756 414.237 116.296C414.775 116.836 415.014 117.497 415.014 118.337V143.432C415.014 145.353 415.552 147.034 416.568 148.535C417.584 150.036 419.018 151.237 420.811 152.077C422.603 152.918 424.695 153.338 426.966 153.338C429.177 153.338 431.149 152.918 432.881 152.077C434.614 151.237 435.989 150.036 437.005 148.535C437.961 147.034 438.499 145.353 438.499 143.432V118.337C438.499 117.497 438.738 116.836 439.275 116.296C439.813 115.756 440.471 115.516 441.248 115.516C442.024 115.516 442.682 115.756 443.219 116.296C443.757 116.836 443.996 117.497 443.996 118.337V143.432C443.996 146.314 443.279 148.895 441.845 151.177C440.411 153.458 438.379 155.199 435.81 156.52C433.18 157.781 430.252 158.381 426.966 158.381C423.619 158.381 420.571 157.781 417.882 156.46Z" fill="black"/>
<path d="M426.966 159.341C423.44 159.341 420.273 158.68 417.464 157.36C414.656 156.039 412.445 154.118 410.891 151.716C409.337 149.315 408.501 146.553 408.501 143.431V118.336C408.501 117.256 408.859 116.355 409.576 115.635C410.293 114.914 411.19 114.614 412.206 114.614C413.281 114.614 414.178 114.974 414.895 115.695C415.612 116.415 415.97 117.316 415.97 118.396V143.491C415.97 145.232 416.389 146.733 417.345 148.054C418.241 149.435 419.556 150.516 421.169 151.236C422.842 152.016 424.814 152.437 426.966 152.437C429.057 152.437 430.91 152.016 432.523 151.236C434.137 150.456 435.332 149.375 436.228 148.054C437.124 146.673 437.543 145.172 437.543 143.431V118.336C437.543 117.256 437.901 116.355 438.618 115.635C439.335 114.914 440.232 114.614 441.248 114.614C442.264 114.614 443.16 114.974 443.877 115.695C444.594 116.415 444.953 117.316 444.953 118.396V143.491C444.953 146.553 444.176 149.315 442.622 151.716C441.068 154.118 438.917 156.039 436.168 157.36C433.479 158.62 430.372 159.341 426.966 159.341ZM412.265 116.475C411.728 116.475 411.309 116.655 410.951 117.016C410.592 117.376 410.413 117.796 410.413 118.336V143.431C410.413 146.133 411.13 148.594 412.504 150.636C413.879 152.737 415.851 154.418 418.361 155.619C420.87 156.819 423.799 157.42 427.025 157.42C430.133 157.42 433.001 156.819 435.451 155.619C437.842 154.418 439.754 152.737 441.128 150.636C442.443 148.534 443.16 146.073 443.16 143.431V118.336C443.16 117.736 442.981 117.316 442.682 116.956C442.323 116.595 441.905 116.475 441.367 116.475C440.829 116.475 440.411 116.655 440.053 117.016C439.694 117.376 439.515 117.796 439.515 118.336V143.431C439.515 145.533 438.977 147.394 437.901 149.075C436.826 150.696 435.332 152.016 433.419 152.917C431.567 153.818 429.416 154.298 427.085 154.298C424.635 154.298 422.424 153.818 420.512 152.917C418.54 152.016 416.986 150.696 415.911 149.075C414.775 147.394 414.237 145.533 414.237 143.431V118.336C414.237 117.736 414.058 117.316 413.759 116.956C413.281 116.595 412.863 116.475 412.265 116.475Z" fill="black"/>
<path d="M503.813 155.019C503.813 155.74 503.574 156.34 503.096 156.82C502.618 157.3 501.961 157.541 501.124 157.541C500.108 157.541 499.271 157.12 498.734 156.22L489.531 141.391H488.575H481.703V154.779C481.703 155.559 481.464 156.22 480.926 156.76C480.388 157.3 479.731 157.541 478.894 157.541C478.117 157.541 477.46 157.3 476.922 156.76C476.384 156.22 476.145 155.559 476.145 154.779V118.337C476.145 117.497 476.384 116.836 476.922 116.296C477.46 115.756 478.117 115.516 478.894 115.516H488.515C491.145 115.516 493.535 116.056 495.626 117.197C497.718 118.337 499.331 119.898 500.526 121.879C501.662 123.86 502.259 126.202 502.259 128.783C502.259 131.305 501.602 133.586 500.347 135.567C499.092 137.549 497.3 139.05 495.088 140.01L503.275 153.218C503.634 153.818 503.813 154.419 503.813 155.019ZM488.515 136.168C490.965 136.168 492.937 135.507 494.491 134.127C496.045 132.746 496.821 130.945 496.821 128.783C496.821 126.442 496.045 124.461 494.491 122.96C492.937 121.459 490.905 120.679 488.515 120.679H481.643V136.168H488.515Z" fill="black"/>
<path d="M501.124 158.44C499.75 158.44 498.674 157.84 497.957 156.639L488.993 142.231H482.599V154.658C482.599 155.679 482.241 156.579 481.583 157.3C480.866 158.02 479.97 158.38 478.894 158.38C477.878 158.38 476.982 158.02 476.265 157.3C475.548 156.579 475.189 155.679 475.189 154.658V118.336C475.189 117.256 475.548 116.355 476.265 115.635C476.982 114.914 477.878 114.614 478.894 114.614H488.515C491.324 114.614 493.834 115.214 496.045 116.415C498.256 117.616 500.048 119.297 501.303 121.458C502.558 123.62 503.156 126.081 503.156 128.783C503.156 131.484 502.439 133.946 501.064 136.047C499.869 137.848 498.315 139.349 496.343 140.37L503.992 152.737C504.47 153.457 504.65 154.238 504.65 155.018C504.65 155.979 504.291 156.819 503.634 157.48C503.096 158.14 502.2 158.44 501.124 158.44ZM481.703 140.43H489.531C489.83 140.43 490.129 140.61 490.308 140.85L499.511 155.679C499.929 156.279 500.407 156.579 501.124 156.579C501.722 156.579 502.14 156.459 502.439 156.099C502.737 155.799 502.917 155.439 502.917 154.958C502.917 154.538 502.797 154.118 502.498 153.697L494.312 140.49C494.192 140.249 494.132 140.009 494.192 139.709C494.252 139.469 494.431 139.229 494.67 139.109C496.702 138.208 498.315 136.827 499.511 134.966C500.706 133.165 501.303 131.064 501.303 128.723C501.303 126.321 500.765 124.16 499.69 122.299C498.614 120.438 497.12 118.997 495.208 117.976C493.236 116.956 491.025 116.415 488.575 116.415H478.954C478.416 116.415 477.998 116.595 477.639 116.956C477.281 117.316 477.102 117.736 477.102 118.276V154.658C477.102 155.198 477.281 155.619 477.639 155.979C477.998 156.339 478.416 156.519 478.954 156.519C479.552 156.519 479.97 156.339 480.269 155.979C480.627 155.619 480.807 155.198 480.807 154.658V141.33C480.747 140.85 481.165 140.43 481.703 140.43ZM488.515 137.128H481.643C481.105 137.128 480.687 136.707 480.687 136.167V120.678C480.687 120.137 481.105 119.717 481.643 119.717H488.515C491.204 119.717 493.415 120.558 495.148 122.239C496.881 123.92 497.778 126.081 497.778 128.723C497.778 131.184 496.881 133.225 495.089 134.786C493.415 136.347 491.204 137.128 488.515 137.128ZM482.599 135.266H488.515C490.726 135.266 492.519 134.666 493.893 133.405C495.268 132.205 495.925 130.704 495.925 128.783C495.925 126.681 495.268 125 493.834 123.68C492.459 122.359 490.667 121.698 488.456 121.698H482.54V135.266H482.599Z" fill="black"/>
<path d="M468.855 341.371C464.135 341.371 459.294 340.171 454.872 337.589C441.546 329.845 436.945 312.674 444.654 299.226C452.183 286.139 456.187 271.19 456.187 256.001C456.187 240.511 468.676 227.964 484.093 227.964C499.511 227.964 512 240.511 512 256.001C512 281.096 505.427 305.77 492.997 327.323C487.858 336.328 478.476 341.371 468.855 341.371Z" fill="#1798F6"/>
<path d="M425.472 384.238C415.672 384.238 406.17 379.015 401.031 369.829C393.502 356.261 398.342 339.211 411.847 331.647C425.472 324.022 436.826 312.795 444.654 299.227C452.363 285.839 469.453 281.217 482.839 288.961C496.165 296.706 500.766 313.876 493.057 327.324C480.209 349.657 461.505 368.088 439.096 380.696C434.734 383.097 430.073 384.238 425.472 384.238Z" fill="#6BD023"/>
<path d="M370.076 398.645C354.659 398.645 342.17 386.098 342.17 370.608C342.17 355.119 354.659 342.572 370.076 342.572C384.717 342.572 399.178 338.789 411.906 331.705C425.411 324.141 442.383 329.003 449.912 342.572C457.441 356.14 452.601 373.19 439.096 380.754C418.061 392.401 394.218 398.645 370.076 398.645Z" fill="#FF5190"/>
<path d="M370.077 398.645C340.676 398.645 312.411 389.7 288.449 372.71C275.84 363.765 272.792 346.294 281.696 333.627C290.6 320.959 307.989 317.897 320.598 326.843C335.119 337.109 352.21 342.512 370.077 342.512C385.494 342.512 397.984 355.059 397.984 370.549C397.984 386.038 385.494 398.645 370.077 398.645Z" fill="#438FBA"/>
<path d="M304.523 377.812C298.966 377.812 293.349 376.131 288.448 372.709C268.49 358.601 252.355 339.45 241.898 317.356C235.265 303.368 241.181 286.618 255.044 279.954C268.968 273.29 285.64 279.234 292.273 293.162C298.667 306.55 308.407 318.197 320.598 326.782C333.207 335.727 336.254 353.198 327.35 365.865C321.913 373.67 313.307 377.812 304.523 377.812Z" fill="#E10492"/>
<path d="M267.115 333.389C256.657 333.389 246.678 327.506 241.897 317.42C232.754 298.148 228.093 277.496 228.093 256.063C228.093 240.574 240.583 228.026 256 228.026C271.417 228.026 283.907 240.574 283.907 256.063C283.907 269.091 286.715 281.638 292.273 293.285C298.906 307.273 293.05 324.023 279.126 330.687C275.242 332.489 271.119 333.389 267.115 333.389Z" fill="#29D884"/>
<path d="M240.762 341.371C236.041 341.371 231.201 340.171 226.779 337.589C213.453 329.845 208.852 312.674 216.56 299.226C224.09 286.139 228.093 271.19 228.093 256.001C228.093 240.511 240.583 227.964 256 227.964C271.417 227.964 283.907 240.511 283.907 256.001C283.907 281.096 277.333 305.77 264.904 327.323C259.765 336.328 250.383 341.371 240.762 341.371Z" fill="#DEE617"/>
<path d="M199.051 383.334C189.43 383.334 180.049 378.291 174.85 369.346C167.141 355.958 171.683 338.788 185.068 330.983C198.155 323.359 209.091 312.432 216.62 299.284C224.329 285.896 241.419 281.274 254.805 289.018C268.131 296.763 272.732 313.933 265.023 327.381C252.594 348.994 234.607 367.065 213.094 379.552C208.613 382.074 203.772 383.334 199.051 383.334Z" fill="#F0131C"/>
<path d="M141.983 398.644C126.566 398.644 114.076 386.096 114.076 370.607C114.076 355.118 126.566 342.57 141.983 342.57C157.101 342.57 172.041 338.548 185.008 330.983C198.334 323.239 215.424 327.802 223.193 341.25C230.902 354.638 226.36 371.808 212.974 379.612C191.462 392.04 166.961 398.644 141.983 398.644Z" fill="#682897"/>
<path d="M141.983 398.644C113.957 398.644 86.8867 390.479 63.6412 374.99C50.7934 366.405 47.2677 348.995 55.813 336.087C64.3583 323.179 81.6879 319.637 94.5357 328.222C108.638 337.588 125.072 342.571 142.043 342.571C157.46 342.571 169.949 355.118 169.949 370.607C169.949 386.097 157.4 398.644 141.983 398.644Z" fill="#F6B545"/>
<path d="M78.999 379.613C73.6806 379.613 68.3622 378.112 63.5816 374.931C44.2203 362.083 28.2053 344.432 17.1503 323.96C9.80012 310.332 14.8197 293.282 28.3846 285.898C41.9495 278.513 58.9206 283.556 66.2707 297.184C72.9635 309.612 82.7637 320.298 94.5359 328.163C107.384 336.748 110.909 354.158 102.364 367.066C96.9262 375.231 88.0821 379.613 78.999 379.613Z" fill="#00FFFF"/>
<path d="M41.7106 338.67C31.7909 338.67 22.2297 333.387 17.1503 324.021C5.91597 303.249 0 279.715 0 256.001C0 240.511 12.4893 227.964 27.9066 227.964C43.324 227.964 55.8133 240.511 55.8133 256.001C55.8133 270.409 59.3987 284.638 66.211 297.245C73.5612 310.873 68.5416 327.923 54.9767 335.308C50.7937 337.589 46.2521 338.67 41.7106 338.67Z" fill="#00AFA2"/>
<path d="M27.9066 284.036C12.4893 284.036 0 271.488 0 255.999C0 230.124 6.9916 204.789 20.1382 182.695C28.0859 169.428 45.2362 165.105 58.4426 173.09C71.6489 181.075 75.9514 198.305 68.0037 211.573C59.9963 224.961 55.8133 240.33 55.8133 255.999C55.873 271.488 43.3838 284.036 27.9066 284.036Z" fill="#2CC8F3"/>
<path d="M44.1011 225.201C39.201 225.201 34.2411 223.881 29.7594 221.179C16.553 213.194 12.2505 195.964 20.1982 182.696C32.9862 161.263 51.2122 143.493 72.9041 131.366C86.3494 123.801 103.38 128.664 110.91 142.232C118.439 155.74 113.599 172.85 100.094 180.415C86.8873 187.799 75.8322 198.606 68.0637 211.633C62.8051 220.339 53.6025 225.201 44.1011 225.201Z" fill="#E84E17"/>
<path d="M86.5283 183.897C76.7281 183.897 67.2267 178.734 62.0875 169.488C54.6179 155.98 59.4582 138.87 72.9036 131.365C93.9381 119.598 117.781 113.355 141.983 113.355C157.4 113.355 169.89 125.902 169.89 141.391C169.89 156.881 157.4 169.428 141.983 169.428C127.283 169.428 112.821 173.21 100.093 180.295C95.7906 182.756 91.1296 183.897 86.5283 183.897Z" fill="#32BB45"/>
<path d="M346.054 173.693C346.412 174.113 346.592 174.713 346.592 175.434C346.592 175.974 346.532 176.454 346.353 176.935L335.596 212.776C335.357 213.436 334.999 213.977 334.521 214.397C334.043 214.817 333.505 214.997 332.848 214.997C332.19 214.997 331.652 214.817 331.115 214.397C330.637 213.977 330.278 213.436 330.039 212.836L322.091 181.858L314.024 212.776C313.785 213.436 313.426 213.977 312.948 214.397C312.47 214.817 311.933 214.997 311.275 214.997C310.618 214.997 310.08 214.817 309.542 214.397C309.064 213.977 308.706 213.436 308.467 212.776L297.71 176.875C297.591 176.394 297.471 175.914 297.471 175.434C297.471 174.653 297.651 174.113 298.069 173.633C298.487 173.212 299.025 172.972 299.742 172.972C300.399 172.972 300.937 173.152 301.415 173.513C301.893 173.873 302.252 174.413 302.431 175.074L311.215 205.752L319.283 175.434C319.402 174.893 319.761 174.473 320.239 174.113C320.717 173.753 321.314 173.573 321.972 173.573C322.569 173.573 323.107 173.753 323.645 174.053C324.123 174.353 324.482 174.833 324.601 175.374L332.788 205.992L341.692 174.833C341.871 174.173 342.17 173.693 342.648 173.453C343.066 173.152 343.664 173.032 344.44 173.032C345.217 173.032 345.755 173.212 346.054 173.693Z" fill="black"/>
<path d="M332.848 215.959C332.011 215.959 331.234 215.659 330.517 215.119C329.86 214.579 329.442 213.918 329.143 213.078L322.091 185.581L314.921 213.018C314.562 213.918 314.144 214.639 313.546 215.119C312.889 215.659 312.112 215.959 311.275 215.959C310.439 215.959 309.662 215.719 309.005 215.179C308.347 214.699 307.869 213.978 307.63 213.138L296.874 177.176C296.695 176.636 296.635 176.036 296.635 175.435C296.635 174.415 296.934 173.634 297.531 173.034C298.129 172.433 298.906 172.073 299.862 172.073C300.698 172.073 301.475 172.313 302.073 172.794C302.73 173.274 303.148 173.934 303.447 174.835L311.335 202.271L318.566 175.195C318.745 174.415 319.223 173.814 319.88 173.334C321.135 172.433 322.928 172.373 324.302 173.274C325.02 173.754 325.438 174.355 325.677 175.195L332.967 202.511L340.915 174.595C341.154 173.754 341.572 173.094 342.23 172.674C342.827 172.313 343.604 172.073 344.5 172.073C345.755 172.073 346.472 172.614 346.831 173.034C347.309 173.634 347.608 174.415 347.608 175.375C347.608 175.976 347.548 176.576 347.369 177.176L336.612 213.018C336.314 213.918 335.836 214.579 335.238 215.119C334.521 215.659 333.744 215.959 332.848 215.959ZM322.091 180.899C322.51 180.899 322.868 181.199 322.988 181.619L330.935 212.597C331.055 213.018 331.354 213.378 331.712 213.678C332.37 214.218 333.266 214.218 333.923 213.678C334.282 213.378 334.581 212.958 334.76 212.417L345.516 176.576C345.636 176.216 345.696 175.795 345.696 175.315C345.696 174.835 345.576 174.475 345.397 174.174C345.337 174.114 345.158 173.874 344.5 173.874C343.963 173.874 343.484 173.994 343.186 174.174C342.947 174.355 342.767 174.595 342.648 175.015L333.744 206.174C333.625 206.594 333.266 206.894 332.848 206.834C332.429 206.834 332.071 206.534 331.951 206.114L323.765 175.495C323.705 175.135 323.526 174.895 323.167 174.715C322.45 174.235 321.494 174.235 320.837 174.715C320.538 174.955 320.299 175.195 320.239 175.555L312.172 205.873C312.052 206.294 311.694 206.534 311.275 206.594C310.857 206.594 310.499 206.294 310.379 205.933L301.595 175.255C301.475 174.775 301.236 174.415 300.878 174.174C300.579 173.934 300.161 173.814 299.742 173.814C299.145 173.814 298.846 173.994 298.726 174.174C298.487 174.415 298.368 174.775 298.368 175.315C298.368 175.735 298.428 176.096 298.547 176.516L309.303 212.477C309.483 212.958 309.722 213.318 310.08 213.618C310.738 214.158 311.694 214.158 312.291 213.618C312.65 213.318 312.949 212.898 313.128 212.357L321.195 181.499C321.315 181.199 321.673 180.899 322.091 180.899Z" fill="black"/>
<path d="M374.797 214.216C374.259 213.676 374.02 213.016 374.02 212.235V175.793C374.02 174.953 374.259 174.292 374.797 173.752C375.335 173.212 375.992 172.972 376.769 172.972C377.606 172.972 378.263 173.212 378.801 173.752C379.339 174.292 379.578 174.953 379.578 175.793V212.175C379.578 212.955 379.339 213.616 378.801 214.156C378.263 214.697 377.606 214.937 376.769 214.937C375.992 215.057 375.335 214.757 374.797 214.216Z" fill="black"/>
<path d="M376.769 215.957C375.753 215.957 374.857 215.597 374.14 214.876C373.423 214.156 373.064 213.255 373.064 212.235V175.793C373.064 174.712 373.423 173.812 374.14 173.091C374.857 172.371 375.753 172.071 376.769 172.071C377.845 172.071 378.741 172.431 379.458 173.151C380.175 173.872 380.534 174.772 380.534 175.853V212.235C380.534 213.255 380.175 214.156 379.518 214.876C378.741 215.597 377.845 215.957 376.769 215.957ZM376.769 173.932C376.231 173.932 375.813 174.112 375.455 174.472C375.096 174.832 374.917 175.253 374.917 175.793V212.175C374.917 212.715 375.096 213.135 375.455 213.495C375.813 213.856 376.231 214.036 376.769 214.036C377.367 214.036 377.785 213.856 378.084 213.495C378.443 213.135 378.622 212.715 378.622 212.175V175.793C378.622 175.192 378.442 174.772 378.144 174.412C377.785 174.112 377.307 173.932 376.769 173.932Z" fill="black"/>
<path d="M415.492 213.195C412.683 211.634 410.711 209.533 409.636 207.012C409.457 206.591 409.397 206.231 409.397 205.931C409.397 205.391 409.576 204.91 409.994 204.49C410.413 204.07 410.951 203.77 411.608 203.65C411.727 203.59 411.907 203.59 412.146 203.59C412.743 203.59 413.281 203.77 413.759 204.13C414.297 204.49 414.655 204.91 414.894 205.511C415.552 206.892 416.807 208.092 418.719 209.053C420.631 210.013 422.723 210.494 424.993 210.494C427.683 210.494 429.953 209.893 431.806 208.633C433.658 207.372 434.614 205.691 434.614 203.53C434.614 201.488 433.838 199.747 432.284 198.306C430.73 196.866 428.34 195.965 425.113 195.665C420.691 195.245 417.225 193.924 414.655 191.763C412.146 189.601 410.831 186.9 410.831 183.598C410.831 181.316 411.488 179.335 412.803 177.654C414.118 175.973 415.91 174.712 418.181 173.812C420.452 172.911 422.962 172.491 425.83 172.491C428.878 172.491 431.507 173.091 433.598 174.352C435.69 175.613 437.483 177.414 438.977 179.755C439.395 180.416 439.634 181.076 439.634 181.677C439.634 182.457 439.275 183.117 438.558 183.598C438.14 183.838 437.722 183.958 437.184 183.958C436.646 183.958 436.168 183.838 435.69 183.538C435.212 183.297 434.853 182.877 434.614 182.457C433.658 180.836 432.463 179.635 431.029 178.795C429.595 177.954 427.742 177.534 425.531 177.534C422.842 177.534 420.631 178.074 418.958 179.095C417.285 180.176 416.448 181.677 416.448 183.718C416.448 185.579 417.225 187.14 418.719 188.401C420.213 189.661 422.902 190.502 426.726 190.862C431.029 191.282 434.316 192.603 436.706 194.764C439.036 196.926 440.232 199.807 440.232 203.349C440.232 205.931 439.514 208.152 438.14 210.013C436.766 211.875 434.913 213.255 432.583 214.156C430.252 215.056 427.802 215.537 425.173 215.537C421.468 215.537 418.301 214.756 415.492 213.195Z" fill="black"/>
<path d="M424.934 216.497C421.349 216.497 418.002 215.656 415.014 214.035C412.026 212.354 409.875 210.133 408.74 207.371C408.501 206.831 408.381 206.351 408.381 205.931C408.381 205.15 408.68 204.43 409.218 203.829C409.756 203.289 410.413 202.929 411.25 202.749C411.429 202.689 411.668 202.689 412.026 202.689C412.803 202.689 413.52 202.929 414.178 203.349C414.835 203.769 415.373 204.37 415.672 205.15C416.209 206.351 417.345 207.371 419.018 208.272C420.751 209.173 422.723 209.593 424.874 209.593C427.324 209.593 429.476 208.992 431.149 207.912C432.762 206.831 433.539 205.45 433.539 203.589C433.539 201.788 432.882 200.287 431.507 199.026C430.073 197.706 427.862 196.925 424.874 196.625C420.273 196.205 416.568 194.764 413.939 192.483C411.19 190.141 409.815 187.139 409.815 183.597C409.815 181.076 410.532 178.914 411.967 177.053C413.341 175.252 415.313 173.871 417.703 172.971C420.094 172.07 422.723 171.59 425.651 171.59C428.878 171.59 431.627 172.25 433.898 173.631C436.109 174.952 438.021 176.873 439.574 179.335C440.112 180.175 440.351 180.956 440.351 181.796C440.351 182.877 439.873 183.837 438.857 184.498C437.722 185.218 436.168 185.218 434.973 184.498C434.376 184.138 433.898 183.657 433.539 183.057C432.702 181.616 431.567 180.475 430.252 179.755C428.938 178.974 427.264 178.614 425.233 178.614C422.723 178.614 420.691 179.095 419.138 180.055C417.763 180.956 417.046 182.156 417.046 183.837C417.046 185.398 417.644 186.719 418.958 187.8C420.333 188.94 422.842 189.661 426.488 190.081C430.969 190.501 434.495 191.942 437.005 194.224C439.574 196.565 440.829 199.687 440.829 203.469C440.829 206.231 440.053 208.692 438.559 210.673C437.065 212.655 435.093 214.156 432.643 215.116C430.312 216.017 427.683 216.497 424.934 216.497ZM412.086 204.55C411.907 204.55 411.847 204.55 411.787 204.55C411.25 204.67 410.831 204.85 410.592 205.15C410.353 205.39 410.234 205.63 410.234 205.931C410.234 205.991 410.234 206.231 410.413 206.651C411.369 208.992 413.222 210.914 415.851 212.354C418.54 213.855 421.588 214.576 424.874 214.576C427.384 214.576 429.774 214.156 431.926 213.255C434.077 212.414 435.81 211.094 437.065 209.413C438.32 207.732 438.977 205.69 438.977 203.349C438.977 200.047 437.901 197.466 435.75 195.484C433.539 193.443 430.372 192.242 426.308 191.822C422.245 191.402 419.436 190.501 417.763 189.121C416.03 187.68 415.194 185.879 415.194 183.717C415.194 181.376 416.209 179.575 418.122 178.314C419.914 177.173 422.305 176.573 425.173 176.573C427.563 176.573 429.535 177.053 431.149 177.954C432.702 178.854 434.077 180.235 435.093 181.976C435.272 182.337 435.511 182.577 435.81 182.757C436.467 183.117 437.244 183.117 437.722 182.817C438.14 182.517 438.379 182.156 438.379 181.676C438.379 181.256 438.2 180.776 437.901 180.235C436.527 178.014 434.854 176.333 432.882 175.132C430.91 173.992 428.46 173.391 425.591 173.391C422.902 173.391 420.452 173.811 418.301 174.652C416.209 175.492 414.536 176.633 413.341 178.194C412.146 179.695 411.608 181.436 411.608 183.537C411.608 186.539 412.743 189 415.074 190.982C417.464 193.023 420.811 194.224 424.994 194.644C428.4 195.004 430.969 195.965 432.702 197.526C434.435 199.147 435.332 201.128 435.332 203.469C435.332 205.931 434.256 207.912 432.105 209.353C430.073 210.673 427.623 211.394 424.814 211.394C422.364 211.394 420.153 210.854 418.122 209.833C416.03 208.752 414.656 207.432 413.879 205.871C413.7 205.45 413.401 205.15 413.042 204.91C412.863 204.67 412.445 204.55 412.086 204.55Z" fill="black"/>
<path d="M470.708 214.216C470.17 213.676 469.931 213.016 469.931 212.235V175.793C469.931 174.953 470.17 174.292 470.708 173.752C471.246 173.212 471.903 172.972 472.68 172.972C473.517 172.972 474.174 173.212 474.712 173.752C475.249 174.292 475.489 174.953 475.489 175.793V191.223H500.347V175.793C500.347 174.953 500.586 174.292 501.124 173.752C501.662 173.212 502.319 172.972 503.096 172.972C503.873 172.972 504.53 173.212 505.068 173.752C505.606 174.292 505.845 174.953 505.845 175.793V212.175C505.845 213.016 505.606 213.676 505.068 214.216C504.53 214.757 503.873 214.997 503.096 214.997C502.319 214.997 501.662 214.757 501.124 214.216C500.586 213.676 500.347 213.016 500.347 212.235V196.205H475.489V212.235C475.489 213.016 475.249 213.676 474.712 214.216C474.174 214.757 473.517 214.997 472.68 214.997C471.903 215.057 471.246 214.757 470.708 214.216Z" fill="black"/>
<path d="M503.096 215.957C502.081 215.957 501.184 215.597 500.467 214.876C499.75 214.156 499.391 213.255 499.391 212.235V197.166H476.445V212.235C476.445 213.255 476.086 214.156 475.429 214.876C474.712 215.597 473.815 215.957 472.74 215.957C471.724 215.957 470.827 215.597 470.11 214.876C469.393 214.156 469.035 213.255 469.035 212.235V175.793C469.035 174.712 469.393 173.812 470.11 173.091C470.827 172.371 471.724 172.071 472.74 172.071C473.815 172.071 474.712 172.431 475.429 173.151C476.146 173.872 476.504 174.772 476.504 175.853V190.322H499.451V175.793C499.451 174.712 499.81 173.812 500.527 173.091C501.244 172.371 502.14 172.071 503.156 172.071C504.172 172.071 505.068 172.431 505.785 173.151C506.503 173.872 506.861 174.772 506.861 175.853V212.235C506.861 213.315 506.503 214.216 505.785 214.936C505.009 215.597 504.112 215.957 503.096 215.957ZM475.489 195.244H500.348C500.885 195.244 501.304 195.665 501.304 196.205V212.235C501.304 212.775 501.483 213.195 501.841 213.555C502.2 213.916 502.618 214.096 503.156 214.096C503.694 214.096 504.112 213.916 504.471 213.615C504.829 213.255 504.949 212.835 504.949 212.235V175.793C504.949 175.192 504.77 174.772 504.471 174.412C504.112 174.052 503.694 173.932 503.156 173.932C502.618 173.932 502.2 174.112 501.841 174.472C501.483 174.832 501.304 175.253 501.304 175.793V191.222C501.304 191.762 500.885 192.183 500.348 192.183H475.489C474.951 192.183 474.532 191.762 474.532 191.222V175.793C474.532 175.192 474.353 174.772 474.054 174.412C473.696 174.052 473.278 173.932 472.68 173.932C472.142 173.932 471.724 174.112 471.365 174.472C471.007 174.832 470.827 175.253 470.827 175.793V212.175C470.827 212.715 471.007 213.135 471.365 213.495C471.724 213.856 472.142 214.036 472.68 214.036C473.278 214.036 473.696 213.856 473.995 213.495C474.353 213.135 474.532 212.715 474.532 212.175V196.205C474.532 195.665 474.951 195.244 475.489 195.244Z" fill="black"/>
</svg>
