<svg width="512" height="512" viewBox="0 0 512 512" fill="none" xmlns="http://www.w3.org/2000/svg">
<g clip-path="url(#clip0)">
<path d="M228.273 155.201C225.106 153.28 222.596 150.698 220.803 147.396C219.011 144.094 218.055 140.432 218.055 136.47C218.055 132.508 218.951 128.905 220.803 125.603C222.596 122.301 225.106 119.72 228.273 117.799C231.44 115.878 234.906 114.917 238.731 114.917C241.42 114.917 243.81 115.277 245.782 115.998C247.754 116.718 249.786 117.919 251.817 119.54C252.236 119.84 252.535 120.2 252.654 120.56C252.774 120.921 252.893 121.281 252.893 121.761C252.893 122.482 252.654 123.082 252.116 123.562C251.578 124.043 250.981 124.283 250.324 124.283C249.666 124.283 249.009 124.043 248.471 123.562C247.037 122.301 245.603 121.401 244.169 120.861C242.794 120.32 241.001 120.02 238.79 120.02C235.982 120.02 233.472 120.741 231.082 122.241C228.751 123.682 226.899 125.724 225.524 128.245C224.15 130.767 223.493 133.528 223.493 136.47C223.493 139.472 224.15 142.233 225.524 144.755C226.899 147.276 228.751 149.258 231.082 150.698C233.412 152.139 235.982 152.92 238.79 152.92C242.197 152.92 245.483 151.719 248.65 149.378C249.248 148.957 249.846 148.717 250.443 148.717C251.1 148.717 251.698 148.957 252.116 149.438C252.535 149.918 252.774 150.578 252.774 151.359C252.774 152.139 252.475 152.8 251.937 153.34C248.113 156.462 243.691 158.023 238.85 158.023C234.906 158.083 231.44 157.122 228.273 155.201Z" fill="white"/>
<path d="M238.73 158.985C234.786 158.985 231.081 157.965 227.794 155.983C224.508 154.002 221.878 151.241 219.966 147.819C218.054 144.396 217.098 140.554 217.098 136.472C217.098 132.389 218.054 128.607 219.966 125.185C221.878 121.763 224.508 119.061 227.794 117.02C231.081 115.039 234.786 114.018 238.73 114.018C241.538 114.018 243.988 114.379 246.08 115.159C248.171 115.879 250.263 117.14 252.354 118.881C252.892 119.301 253.251 119.722 253.49 120.262C253.669 120.742 253.789 121.223 253.789 121.823C253.789 122.784 253.43 123.684 252.713 124.284C251.339 125.545 249.307 125.545 247.813 124.284C246.439 123.084 245.064 122.243 243.749 121.703C242.495 121.223 240.762 120.922 238.67 120.922C236.101 120.922 233.65 121.643 231.499 122.964C229.288 124.345 227.555 126.266 226.241 128.607C224.926 131.008 224.269 133.59 224.269 136.412C224.269 139.233 224.926 141.875 226.241 144.216C227.555 146.558 229.288 148.479 231.499 149.86C233.65 151.241 236.101 151.901 238.67 151.901C241.897 151.901 245.004 150.76 247.932 148.539C249.665 147.278 251.518 147.518 252.653 148.719C253.251 149.379 253.55 150.22 253.55 151.241C253.55 152.261 253.191 153.162 252.414 153.882L252.354 153.942C248.411 157.364 243.809 158.985 238.73 158.985ZM238.73 115.939C235.085 115.939 231.738 116.84 228.75 118.701C225.763 120.502 223.372 123.024 221.639 126.146C219.906 129.267 219.01 132.75 219.01 136.532C219.01 140.314 219.906 143.856 221.639 146.978C223.372 150.1 225.763 152.621 228.75 154.422C231.738 156.224 235.085 157.124 238.73 157.124C243.331 157.124 247.574 155.623 251.219 152.681C251.578 152.321 251.757 151.901 251.757 151.361C251.757 150.82 251.637 150.4 251.339 150.1C250.801 149.56 250.024 149.5 249.128 150.16C245.841 152.621 242.375 153.882 238.73 153.882C235.802 153.882 233.053 153.102 230.543 151.541C228.093 149.98 226.121 147.879 224.627 145.237C223.193 142.595 222.476 139.654 222.476 136.532C222.476 133.41 223.193 130.468 224.627 127.827C226.061 125.185 228.033 123.024 230.543 121.463C232.993 119.902 235.742 119.121 238.73 119.121C241.06 119.121 242.973 119.422 244.467 120.022C245.96 120.622 247.454 121.583 249.008 122.904C249.785 123.504 250.741 123.564 251.458 122.904C251.757 122.603 251.936 122.303 251.936 121.823C251.936 121.463 251.876 121.223 251.817 120.983C251.757 120.862 251.637 120.622 251.279 120.382C249.307 118.761 247.395 117.62 245.482 116.96C243.57 116.3 241.299 115.939 238.73 115.939Z" fill="white"/>
<path d="M291.256 155.323C288.029 153.522 285.519 150.941 283.726 147.639C281.934 144.337 281.037 140.615 281.037 136.472C281.037 132.33 281.934 128.607 283.726 125.365C285.519 122.124 288.029 119.542 291.256 117.741C294.483 115.94 298.188 114.979 302.311 114.979C306.434 114.979 310.079 115.88 313.306 117.741C316.533 119.542 319.043 122.124 320.836 125.365C322.628 128.607 323.525 132.33 323.525 136.472C323.525 140.615 322.628 144.337 320.836 147.639C319.043 150.941 316.533 153.462 313.306 155.323C310.079 157.184 306.434 158.085 302.251 158.085C298.188 158.085 294.483 157.184 291.256 155.323ZM310.498 150.821C312.948 149.38 314.8 147.399 316.175 144.877C317.549 142.356 318.206 139.594 318.206 136.472C318.206 133.41 317.549 130.589 316.175 128.067C314.8 125.546 312.948 123.564 310.498 122.124C308.107 120.683 305.358 119.962 302.251 119.962C299.203 119.962 296.455 120.683 294.005 122.124C291.555 123.564 289.702 125.546 288.328 128.067C286.953 130.589 286.296 133.35 286.296 136.472C286.296 139.534 286.953 142.356 288.328 144.877C289.702 147.399 291.555 149.38 294.005 150.821C296.455 152.262 299.144 152.982 302.191 152.982C305.358 153.042 308.048 152.262 310.498 150.821Z" fill="white"/>
<path d="M302.312 158.985C298.009 158.985 294.185 158.025 290.779 156.103C287.432 154.182 284.743 151.481 282.891 148.059C281.038 144.637 280.082 140.734 280.082 136.472C280.082 132.149 281.038 128.247 282.891 124.885C284.743 121.463 287.372 118.761 290.779 116.9C294.125 114.979 298.009 114.018 302.312 114.018C306.554 114.018 310.439 114.979 313.785 116.9C317.131 118.821 319.821 121.523 321.673 124.885C323.525 128.247 324.482 132.149 324.482 136.472C324.482 140.794 323.525 144.697 321.673 148.059C319.821 151.481 317.131 154.182 313.785 156.103C310.439 158.025 306.614 158.985 302.312 158.985ZM302.312 115.939C298.368 115.939 294.782 116.84 291.735 118.581C288.687 120.322 286.237 122.784 284.564 125.845C282.891 128.967 281.994 132.569 281.994 136.532C281.994 140.494 282.831 144.096 284.564 147.218C286.237 150.34 288.687 152.802 291.735 154.543C294.782 156.284 298.368 157.184 302.312 157.184C306.256 157.184 309.841 156.284 312.889 154.543C315.936 152.802 318.327 150.34 320.06 147.218C321.793 144.096 322.629 140.494 322.629 136.532C322.629 132.569 321.733 128.967 320.06 125.845C318.327 122.724 315.936 120.322 312.889 118.581C309.781 116.84 306.256 115.939 302.312 115.939ZM302.312 153.942C299.145 153.942 296.216 153.162 293.647 151.661C291.077 150.1 289.046 147.999 287.611 145.357C286.177 142.715 285.46 139.774 285.46 136.532C285.46 133.29 286.177 130.348 287.611 127.707C289.046 125.065 291.077 122.964 293.587 121.463C296.157 119.962 299.025 119.181 302.252 119.181C305.479 119.181 308.407 119.962 310.917 121.463C313.486 122.964 315.458 125.065 316.892 127.707C318.327 130.348 319.044 133.29 319.044 136.532C319.044 139.774 318.327 142.715 316.892 145.357C315.458 147.999 313.427 150.1 310.857 151.661C308.407 153.162 305.479 153.942 302.312 153.942ZM302.312 120.983C299.443 120.983 296.814 121.643 294.543 123.024C292.273 124.345 290.48 126.206 289.225 128.607C287.97 130.948 287.313 133.65 287.313 136.532C287.313 139.474 287.97 142.115 289.225 144.457C290.48 146.798 292.273 148.659 294.543 150.04C296.814 151.421 299.384 152.081 302.252 152.081C305.12 152.081 307.69 151.421 309.961 150.04C312.231 148.659 314.024 146.798 315.279 144.457C316.534 142.115 317.191 139.414 317.191 136.532C317.191 133.65 316.534 130.948 315.279 128.607C314.024 126.266 312.231 124.405 309.961 123.024C307.809 121.643 305.18 120.983 302.312 120.983Z" fill="white"/>
<path d="M354.48 156.705C353.942 156.165 353.703 155.504 353.703 154.724V118.342C353.703 117.562 353.942 116.901 354.48 116.361C355.018 115.821 355.675 115.581 356.392 115.581C357.169 115.581 357.826 115.821 358.364 116.361C358.902 116.901 359.141 117.562 359.141 118.342V151.962H378.502C379.279 151.962 379.937 152.203 380.474 152.743C381.012 153.283 381.251 153.944 381.251 154.724C381.251 155.504 381.012 156.165 380.474 156.705C379.937 157.246 379.279 157.486 378.502 157.486H356.332C355.675 157.546 355.018 157.246 354.48 156.705Z" fill="white"/>
<path d="M378.622 158.446H356.452C355.436 158.446 354.54 158.086 353.822 157.365C353.105 156.645 352.807 155.744 352.807 154.724V118.342C352.807 117.321 353.165 116.421 353.882 115.7C354.599 114.98 355.496 114.62 356.452 114.62C357.468 114.62 358.364 114.98 359.081 115.7C359.798 116.421 360.157 117.321 360.157 118.342V151.002H378.622C379.638 151.002 380.534 151.362 381.251 152.082C381.968 152.803 382.327 153.703 382.327 154.724C382.327 155.744 381.968 156.645 381.251 157.365C380.534 158.086 379.638 158.446 378.622 158.446ZM356.452 116.481C355.974 116.481 355.555 116.661 355.197 117.021C354.838 117.381 354.659 117.802 354.659 118.342V154.724C354.659 155.264 354.838 155.684 355.197 156.045C355.555 156.405 355.974 156.585 356.452 156.585H378.622C379.159 156.585 379.578 156.405 379.936 156.045C380.295 155.684 380.474 155.264 380.474 154.724C380.474 154.183 380.295 153.763 379.936 153.403C379.578 153.043 379.159 152.863 378.622 152.863H359.26C358.723 152.863 358.304 152.442 358.304 151.902V118.282C358.304 117.742 358.125 117.321 357.766 116.961C357.408 116.601 356.99 116.481 356.452 116.481Z" fill="white"/>
<path d="M417.883 156.463C415.253 155.202 413.162 153.401 411.668 151.18C410.174 148.898 409.457 146.317 409.457 143.435V118.34C409.457 117.5 409.696 116.839 410.234 116.299C410.772 115.759 411.429 115.518 412.206 115.518C413.042 115.518 413.7 115.759 414.238 116.299C414.775 116.839 415.014 117.5 415.014 118.34V143.435C415.014 145.356 415.552 147.037 416.568 148.538C417.584 150.039 419.018 151.24 420.811 152.08C422.604 152.921 424.695 153.341 426.966 153.341C429.177 153.341 431.149 152.921 432.882 152.08C434.615 151.24 435.989 150.039 437.005 148.538C437.961 147.037 438.499 145.356 438.499 143.435V118.34C438.499 117.5 438.738 116.839 439.276 116.299C439.814 115.759 440.471 115.518 441.248 115.518C442.025 115.518 442.682 115.759 443.22 116.299C443.758 116.839 443.997 117.5 443.997 118.34V143.435C443.997 146.317 443.28 148.898 441.845 151.18C440.411 153.461 438.379 155.202 435.81 156.523C433.181 157.784 430.252 158.384 426.966 158.384C423.619 158.384 420.572 157.784 417.883 156.463Z" fill="white"/>
<path d="M426.965 159.346C423.439 159.346 420.272 158.686 417.464 157.365C414.655 156.045 412.444 154.123 410.89 151.722C409.337 149.32 408.5 146.559 408.5 143.437V118.342C408.5 117.261 408.859 116.361 409.576 115.64C410.293 114.92 411.189 114.62 412.205 114.62C413.281 114.62 414.177 114.98 414.894 115.7C415.611 116.421 415.97 117.321 415.97 118.402V143.497C415.97 145.238 416.388 146.739 417.344 148.06C418.241 149.441 419.555 150.521 421.169 151.242C422.842 152.022 424.814 152.442 426.965 152.442C429.057 152.442 430.909 152.022 432.523 151.242C434.136 150.461 435.331 149.381 436.227 148.06C437.124 146.679 437.542 145.178 437.542 143.437V118.342C437.542 117.261 437.901 116.361 438.618 115.64C439.335 114.92 440.231 114.62 441.247 114.62C442.263 114.62 443.159 114.98 443.876 115.7C444.593 116.421 444.952 117.321 444.952 118.402V143.497C444.952 146.559 444.175 149.32 442.622 151.722C441.068 154.123 438.917 156.045 436.168 157.365C433.479 158.626 430.371 159.346 426.965 159.346ZM412.265 116.481C411.727 116.481 411.309 116.661 410.95 117.021C410.592 117.381 410.412 117.802 410.412 118.342V143.437C410.412 146.139 411.129 148.6 412.504 150.641C413.878 152.743 415.85 154.424 418.36 155.624C420.87 156.825 423.798 157.425 427.025 157.425C430.132 157.425 433.001 156.825 435.451 155.624C437.841 154.424 439.753 152.743 441.128 150.641C442.442 148.54 443.159 146.079 443.159 143.437V118.342C443.159 117.742 442.98 117.321 442.681 116.961C442.323 116.601 441.904 116.481 441.367 116.481C440.829 116.481 440.411 116.661 440.052 117.021C439.693 117.381 439.514 117.802 439.514 118.342V143.437C439.514 145.538 438.976 147.399 437.901 149.08C436.825 150.701 435.331 152.022 433.419 152.923C431.566 153.823 429.415 154.303 427.085 154.303C424.635 154.303 422.424 153.823 420.511 152.923C418.539 152.022 416.986 150.701 415.91 149.08C414.775 147.399 414.237 145.538 414.237 143.437V118.342C414.237 117.742 414.058 117.321 413.759 116.961C413.281 116.601 412.862 116.481 412.265 116.481Z" fill="white"/>
<path d="M503.812 155.022C503.812 155.743 503.573 156.343 503.095 156.823C502.617 157.303 501.96 157.544 501.123 157.544C500.107 157.544 499.271 157.123 498.733 156.223L489.53 141.394H488.574H481.702V154.782C481.702 155.562 481.463 156.223 480.925 156.763C480.387 157.303 479.73 157.544 478.894 157.544C478.117 157.544 477.459 157.303 476.922 156.763C476.384 156.223 476.145 155.562 476.145 154.782V118.34C476.145 117.5 476.384 116.839 476.922 116.299C477.459 115.759 478.117 115.518 478.894 115.518H488.514C491.144 115.518 493.534 116.059 495.626 117.199C497.717 118.34 499.33 119.901 500.526 121.882C501.661 123.863 502.259 126.205 502.259 128.786C502.259 131.308 501.601 133.589 500.346 135.57C499.091 137.552 497.299 139.053 495.088 140.013L503.274 153.221C503.633 153.821 503.812 154.422 503.812 155.022ZM488.514 136.171C490.964 136.171 492.936 135.51 494.49 134.13C496.044 132.749 496.821 130.948 496.821 128.786C496.821 126.445 496.044 124.464 494.49 122.963C492.936 121.462 490.905 120.682 488.514 120.682H481.642V136.171H488.514Z" fill="white"/>
<path d="M501.124 158.446C499.75 158.446 498.674 157.846 497.957 156.645L488.993 142.236H482.599V154.664C482.599 155.684 482.241 156.585 481.584 157.305C480.866 158.026 479.97 158.386 478.894 158.386C477.879 158.386 476.982 158.026 476.265 157.305C475.548 156.585 475.189 155.684 475.189 154.664V118.342C475.189 117.261 475.548 116.361 476.265 115.64C476.982 114.92 477.879 114.62 478.894 114.62H488.515C491.324 114.62 493.834 115.22 496.045 116.421C498.256 117.622 500.049 119.303 501.303 121.464C502.558 123.625 503.156 126.087 503.156 128.788C503.156 131.49 502.439 133.951 501.064 136.053C499.869 137.854 498.316 139.355 496.344 140.375L503.993 152.743C504.471 153.463 504.65 154.243 504.65 155.024C504.65 155.984 504.291 156.825 503.634 157.485C503.096 158.146 502.2 158.446 501.124 158.446ZM481.703 140.435H489.531C489.83 140.435 490.129 140.615 490.308 140.855L499.511 155.684C499.929 156.285 500.407 156.585 501.124 156.585C501.722 156.585 502.14 156.465 502.439 156.105C502.738 155.804 502.917 155.444 502.917 154.964C502.917 154.544 502.797 154.123 502.499 153.703L494.312 140.495C494.192 140.255 494.133 140.015 494.192 139.715C494.252 139.475 494.431 139.234 494.67 139.114C496.702 138.214 498.316 136.833 499.511 134.972C500.706 133.171 501.303 131.07 501.303 128.728C501.303 126.327 500.766 124.165 499.69 122.304C498.614 120.443 497.12 119.002 495.208 117.982C493.236 116.961 491.025 116.421 488.575 116.421H478.954C478.416 116.421 477.998 116.601 477.64 116.961C477.281 117.321 477.102 117.742 477.102 118.282V154.664C477.102 155.204 477.281 155.624 477.64 155.984C477.998 156.345 478.416 156.525 478.954 156.525C479.552 156.525 479.97 156.345 480.269 155.984C480.627 155.624 480.807 155.204 480.807 154.664V141.336C480.747 140.855 481.165 140.435 481.703 140.435ZM488.515 137.133H481.643C481.105 137.133 480.687 136.713 480.687 136.173V120.683C480.687 120.143 481.105 119.723 481.643 119.723H488.515C491.204 119.723 493.415 120.563 495.148 122.244C496.881 123.925 497.778 126.087 497.778 128.728C497.778 131.19 496.881 133.231 495.089 134.792C493.415 136.353 491.204 137.133 488.515 137.133ZM482.599 135.272H488.515C490.726 135.272 492.519 134.672 493.894 133.411C495.268 132.21 495.925 130.709 495.925 128.788C495.925 126.687 495.268 125.006 493.834 123.685C492.459 122.364 490.667 121.704 488.456 121.704H482.54V135.272H482.599Z" fill="white"/>
<path d="M468.856 341.372C464.136 341.372 459.295 340.171 454.873 337.589C441.547 329.845 436.946 312.675 444.655 299.227C452.184 286.139 456.188 271.19 456.188 256.001C456.188 240.512 468.677 227.964 484.094 227.964C499.512 227.964 512.001 240.512 512.001 256.001C512.001 281.096 505.428 305.77 492.998 327.323C487.859 336.329 478.477 341.372 468.856 341.372Z" fill="#1798F6"/>
<path d="M425.471 384.239C415.671 384.239 406.169 379.016 401.03 369.831C393.501 356.262 398.341 339.212 411.846 331.648C425.471 324.023 436.825 312.796 444.653 299.228C452.362 285.84 469.452 281.218 482.838 288.962C496.164 296.707 500.765 313.877 493.057 327.325C480.209 349.658 461.505 368.089 439.096 380.697C434.733 383.098 430.072 384.239 425.471 384.239Z" fill="#6BD023"/>
<path d="M370.077 398.649C354.659 398.649 342.17 386.102 342.17 370.613C342.17 355.123 354.659 342.576 370.077 342.576C384.717 342.576 399.178 338.794 411.907 331.709C425.412 324.145 442.383 329.008 449.912 342.576C457.442 356.144 452.601 373.194 439.096 380.759C418.062 392.406 394.218 398.649 370.077 398.649Z" fill="#FF5190"/>
<path d="M370.077 398.647C340.676 398.647 312.411 389.701 288.448 372.711C275.84 363.766 272.792 346.295 281.696 333.628C290.6 320.96 307.989 317.898 320.598 326.844C335.119 337.11 352.209 342.513 370.077 342.513C385.494 342.513 397.983 355.061 397.983 370.55C397.983 386.039 385.494 398.647 370.077 398.647Z" fill="#438FBA"/>
<path d="M304.523 377.814C298.965 377.814 293.348 376.133 288.448 372.711C268.489 358.603 252.355 339.451 241.897 317.358C235.264 303.37 241.18 286.62 255.044 279.956C268.967 273.292 285.639 279.235 292.272 293.164C298.667 306.552 308.407 318.199 320.597 326.784C333.206 335.729 336.254 353.199 327.35 365.867C321.912 373.672 313.307 377.814 304.523 377.814Z" fill="#E10492"/>
<path d="M267.115 333.397C256.658 333.397 246.678 327.514 241.898 317.428C232.755 298.156 228.094 277.504 228.094 256.071C228.094 240.582 240.583 228.034 256 228.034C271.418 228.034 283.907 240.582 283.907 256.071C283.907 269.099 286.716 281.646 292.273 293.293C298.906 307.282 293.05 324.032 279.126 330.696C275.242 332.497 271.119 333.397 267.115 333.397Z" fill="#29D884"/>
<path d="M240.763 341.372C236.042 341.372 231.202 340.171 226.779 337.59C213.454 329.845 208.852 312.675 216.561 299.227C224.09 286.139 228.094 271.19 228.094 256.001C228.094 240.512 240.583 227.964 256.001 227.964C271.418 227.964 283.907 240.512 283.907 256.001C283.907 281.096 277.334 305.77 264.905 327.323C259.765 336.329 250.384 341.372 240.763 341.372Z" fill="#DEE617"/>
<path d="M199.051 383.334C189.43 383.334 180.048 378.291 174.85 369.346C167.141 355.958 171.682 338.787 185.068 330.983C198.155 323.358 209.09 312.432 216.62 299.284C224.329 285.896 241.419 281.273 254.805 289.018C268.131 296.762 272.732 313.932 265.023 327.38C252.594 348.993 234.607 367.064 213.094 379.552C208.612 382.073 203.772 383.334 199.051 383.334Z" fill="#F0131C"/>
<path d="M141.983 398.644C126.565 398.644 114.076 386.097 114.076 370.607C114.076 355.118 126.565 342.571 141.983 342.571C157.101 342.571 172.041 338.548 185.008 330.984C198.334 323.239 215.424 327.802 223.193 341.25C230.902 354.638 226.36 371.808 212.974 379.613C191.462 392.04 166.961 398.644 141.983 398.644Z" fill="#682897"/>
<path d="M141.983 398.645C113.957 398.645 86.8872 390.48 63.6416 374.991C50.7938 366.406 47.2681 348.996 55.8134 336.088C64.3587 323.18 81.6883 319.638 94.5361 328.223C108.639 337.589 125.072 342.572 142.043 342.572C157.46 342.572 169.95 355.119 169.95 370.608C169.95 386.098 157.401 398.645 141.983 398.645Z" fill="#F6B545"/>
<path d="M78.9997 379.611C73.6813 379.611 68.3629 378.11 63.5824 374.928C44.221 362.081 28.2061 344.43 17.151 323.958C9.80084 310.33 14.8204 293.279 28.3853 285.895C41.9502 278.511 58.9213 283.554 66.2714 297.182C72.9643 309.609 82.7644 320.296 94.5366 328.16C107.384 336.745 110.91 354.156 102.365 367.064C96.9269 375.228 88.0828 379.611 78.9997 379.611Z" fill="#00FFFF"/>
<path d="M41.7106 338.67C31.7909 338.67 22.2297 333.387 17.1503 324.021C5.91597 303.249 0 279.715 0 256.001C0 240.512 12.4893 227.964 27.9066 227.964C43.324 227.964 55.8133 240.512 55.8133 256.001C55.8133 270.409 59.3987 284.638 66.211 297.245C73.5612 310.874 68.5416 327.924 54.9767 335.308C50.7937 337.59 46.2521 338.67 41.7106 338.67Z" fill="#00AFA2"/>
<path d="M27.9066 284.036C12.4893 284.036 0 271.489 0 255.999C0 230.124 6.9916 204.789 20.1382 182.696C28.0859 169.428 45.2362 165.105 58.4426 173.09C71.6489 181.075 75.9515 198.305 68.0037 211.573C59.9963 224.961 55.8133 240.33 55.8133 255.999C55.873 271.489 43.3838 284.036 27.9066 284.036Z" fill="#2CC8F3"/>
<path d="M44.0999 225.202C39.1998 225.202 34.2399 223.881 29.7581 221.18C16.5518 213.195 12.2493 195.965 20.197 182.697C32.985 161.264 51.211 143.493 72.9029 131.366C86.3482 123.802 103.379 128.665 110.908 142.233C118.438 155.741 113.598 172.851 100.092 180.415C86.886 187.8 75.831 198.606 68.0625 211.634C62.8039 220.339 53.6013 225.202 44.0999 225.202Z" fill="#E84E17"/>
<path d="M86.5277 183.897C76.7275 183.897 67.2261 178.734 62.087 169.488C54.6173 155.98 59.4577 138.87 72.9031 131.365C93.9376 119.598 117.781 113.355 141.982 113.355C157.4 113.355 169.889 125.902 169.889 141.391C169.889 156.881 157.4 169.428 141.982 169.428C127.282 169.428 112.821 173.211 100.093 180.295C95.7901 182.756 91.129 183.897 86.5277 183.897Z" fill="#32BB45"/>
<path d="M346.053 173.692C346.412 174.112 346.591 174.713 346.591 175.433C346.591 175.974 346.531 176.454 346.352 176.934L335.596 212.776C335.357 213.436 334.998 213.976 334.52 214.396C334.042 214.817 333.504 214.997 332.847 214.997C332.19 214.997 331.652 214.817 331.114 214.396C330.636 213.976 330.277 213.436 330.038 212.836L322.091 181.857L314.024 212.776C313.785 213.436 313.426 213.976 312.948 214.396C312.47 214.817 311.932 214.997 311.275 214.997C310.617 214.997 310.08 214.817 309.542 214.396C309.064 213.976 308.705 213.436 308.466 212.776L297.71 176.874C297.59 176.394 297.471 175.913 297.471 175.433C297.471 174.653 297.65 174.112 298.068 173.632C298.487 173.212 299.024 172.972 299.742 172.972C300.399 172.972 300.937 173.152 301.415 173.512C301.893 173.872 302.251 174.413 302.431 175.073L311.215 205.751L319.282 175.433C319.402 174.893 319.76 174.473 320.238 174.112C320.716 173.752 321.314 173.572 321.971 173.572C322.569 173.572 323.107 173.752 323.644 174.052C324.122 174.353 324.481 174.833 324.601 175.373L332.787 205.991L341.691 174.833C341.87 174.172 342.169 173.692 342.647 173.452C343.066 173.152 343.663 173.032 344.44 173.032C345.217 173.032 345.755 173.212 346.053 173.692Z" fill="white"/>
<path d="M332.848 215.96C332.011 215.96 331.234 215.66 330.517 215.119C329.86 214.579 329.441 213.919 329.143 213.078L322.091 185.582L314.92 213.018C314.562 213.919 314.144 214.639 313.546 215.119C312.889 215.66 312.112 215.96 311.275 215.96C310.439 215.96 309.662 215.72 309.004 215.179C308.347 214.699 307.869 213.979 307.63 213.138L296.874 177.177C296.695 176.636 296.635 176.036 296.635 175.436C296.635 174.415 296.934 173.634 297.531 173.034C298.129 172.434 298.906 172.074 299.862 172.074C300.698 172.074 301.475 172.314 302.073 172.794C302.73 173.274 303.148 173.935 303.447 174.835L311.335 202.272L318.566 175.195C318.745 174.415 319.223 173.815 319.88 173.334C321.135 172.434 322.928 172.374 324.302 173.274C325.019 173.755 325.438 174.355 325.677 175.195L332.967 202.512L340.915 174.595C341.154 173.755 341.572 173.094 342.23 172.674C342.827 172.314 343.604 172.074 344.5 172.074C345.755 172.074 346.472 172.614 346.831 173.034C347.309 173.634 347.608 174.415 347.608 175.375C347.608 175.976 347.548 176.576 347.369 177.177L336.612 213.018C336.314 213.919 335.835 214.579 335.238 215.119C334.521 215.66 333.744 215.96 332.848 215.96ZM322.091 180.899C322.51 180.899 322.868 181.199 322.988 181.619L330.935 212.598C331.055 213.018 331.354 213.378 331.712 213.678C332.37 214.219 333.266 214.219 333.923 213.678C334.282 213.378 334.581 212.958 334.76 212.418L345.516 176.576C345.636 176.216 345.695 175.796 345.695 175.315C345.695 174.835 345.576 174.475 345.397 174.175C345.337 174.115 345.158 173.875 344.5 173.875C343.962 173.875 343.484 173.995 343.186 174.175C342.947 174.355 342.767 174.595 342.648 175.015L333.744 206.174C333.624 206.594 333.266 206.894 332.848 206.834C332.429 206.834 332.071 206.534 331.951 206.114L323.765 175.496C323.705 175.135 323.526 174.895 323.167 174.715C322.45 174.235 321.494 174.235 320.836 174.715C320.538 174.955 320.299 175.195 320.239 175.556L312.172 205.874C312.052 206.294 311.694 206.534 311.275 206.594C310.857 206.594 310.498 206.294 310.379 205.934L301.595 175.255C301.475 174.775 301.236 174.415 300.878 174.175C300.579 173.935 300.16 173.815 299.742 173.815C299.145 173.815 298.846 173.995 298.726 174.175C298.487 174.415 298.368 174.775 298.368 175.315C298.368 175.736 298.427 176.096 298.547 176.516L309.303 212.478C309.483 212.958 309.722 213.318 310.08 213.618C310.737 214.159 311.694 214.159 312.291 213.618C312.65 213.318 312.948 212.898 313.128 212.358L321.195 181.499C321.314 181.199 321.673 180.899 322.091 180.899Z" fill="white"/>
<path d="M374.796 214.21C374.259 213.669 374.02 213.009 374.02 212.228V175.787C374.02 174.946 374.259 174.286 374.796 173.745C375.334 173.205 375.992 172.965 376.768 172.965C377.605 172.965 378.262 173.205 378.8 173.745C379.338 174.286 379.577 174.946 379.577 175.787V212.168C379.577 212.949 379.338 213.609 378.8 214.149C378.262 214.69 377.605 214.93 376.768 214.93C375.992 215.05 375.334 214.75 374.796 214.21Z" fill="white"/>
<path d="M376.769 215.952C375.754 215.952 374.857 215.592 374.14 214.872C373.423 214.151 373.064 213.251 373.064 212.23V175.788C373.064 174.708 373.423 173.807 374.14 173.087C374.857 172.366 375.754 172.066 376.769 172.066C377.845 172.066 378.741 172.426 379.458 173.147C380.176 173.867 380.534 174.768 380.534 175.848V212.23C380.534 213.251 380.176 214.151 379.518 214.872C378.741 215.592 377.845 215.952 376.769 215.952ZM376.769 173.927C376.232 173.927 375.813 174.107 375.455 174.468C375.096 174.828 374.917 175.248 374.917 175.788V212.17C374.917 212.71 375.096 213.131 375.455 213.491C375.813 213.851 376.232 214.031 376.769 214.031C377.367 214.031 377.785 213.851 378.084 213.491C378.443 213.131 378.622 212.71 378.622 212.17V175.788C378.622 175.188 378.443 174.768 378.144 174.408C377.785 174.107 377.307 173.927 376.769 173.927Z" fill="white"/>
<path d="M415.492 213.192C412.683 211.631 410.711 209.53 409.636 207.008C409.456 206.588 409.397 206.228 409.397 205.928C409.397 205.388 409.576 204.907 409.994 204.487C410.412 204.067 410.95 203.767 411.608 203.646C411.727 203.586 411.906 203.586 412.145 203.586C412.743 203.586 413.281 203.767 413.759 204.127C414.297 204.487 414.655 204.907 414.894 205.508C415.552 206.888 416.806 208.089 418.719 209.05C420.631 210.01 422.722 210.491 424.993 210.491C427.682 210.491 429.953 209.89 431.806 208.629C433.658 207.369 434.614 205.688 434.614 203.526C434.614 201.485 433.837 199.744 432.284 198.303C430.73 196.862 428.34 195.962 425.113 195.662C420.691 195.241 417.225 193.921 414.655 191.759C412.145 189.598 410.831 186.896 410.831 183.595C410.831 181.313 411.488 179.332 412.803 177.651C414.117 175.97 415.91 174.709 418.181 173.809C420.452 172.908 422.961 172.488 425.83 172.488C428.877 172.488 431.507 173.088 433.598 174.349C435.69 175.61 437.482 177.411 438.976 179.752C439.395 180.413 439.634 181.073 439.634 181.673C439.634 182.454 439.275 183.114 438.558 183.595C438.14 183.835 437.721 183.955 437.184 183.955C436.646 183.955 436.168 183.835 435.69 183.534C435.212 183.294 434.853 182.874 434.614 182.454C433.658 180.833 432.463 179.632 431.029 178.792C429.595 177.951 427.742 177.531 425.531 177.531C422.842 177.531 420.631 178.071 418.958 179.092C417.285 180.172 416.448 181.673 416.448 183.715C416.448 185.576 417.225 187.137 418.719 188.397C420.213 189.658 422.902 190.499 426.726 190.859C431.029 191.279 434.315 192.6 436.706 194.761C439.036 196.922 440.231 199.804 440.231 203.346C440.231 205.928 439.514 208.149 438.14 210.01C436.765 211.871 434.913 213.252 432.582 214.153C430.252 215.053 427.802 215.534 425.172 215.534C421.468 215.534 418.3 214.753 415.492 213.192Z" fill="white"/>
<path d="M424.934 216.496C421.348 216.496 418.002 215.656 415.014 214.035C412.026 212.354 409.875 210.132 408.739 207.371C408.5 206.83 408.381 206.35 408.381 205.93C408.381 205.149 408.68 204.429 409.217 203.828C409.755 203.288 410.413 202.928 411.249 202.748C411.429 202.688 411.668 202.688 412.026 202.688C412.803 202.688 413.52 202.928 414.177 203.348C414.835 203.768 415.372 204.369 415.671 205.149C416.209 206.35 417.344 207.371 419.018 208.271C420.751 209.172 422.723 209.592 424.874 209.592C427.324 209.592 429.475 208.992 431.148 207.911C432.762 206.83 433.539 205.449 433.539 203.588C433.539 201.787 432.881 200.286 431.507 199.026C430.073 197.705 427.862 196.924 424.874 196.624C420.273 196.204 416.568 194.763 413.938 192.482C411.189 190.14 409.815 187.138 409.815 183.596C409.815 181.075 410.532 178.914 411.966 177.052C413.341 175.251 415.313 173.871 417.703 172.97C420.093 172.069 422.723 171.589 425.651 171.589C428.878 171.589 431.626 172.25 433.897 173.63C436.108 174.951 438.02 176.872 439.574 179.334C440.112 180.174 440.351 180.955 440.351 181.795C440.351 182.876 439.873 183.836 438.857 184.497C437.722 185.217 436.168 185.217 434.973 184.497C434.375 184.137 433.897 183.656 433.539 183.056C432.702 181.615 431.567 180.474 430.252 179.754C428.937 178.974 427.264 178.613 425.232 178.613C422.723 178.613 420.691 179.094 419.137 180.054C417.763 180.955 417.046 182.155 417.046 183.836C417.046 185.397 417.643 186.718 418.958 187.799C420.332 188.94 422.842 189.66 426.487 190.08C430.969 190.5 434.495 191.941 437.005 194.223C439.574 196.564 440.829 199.686 440.829 203.468C440.829 206.23 440.052 208.691 438.558 210.673C437.064 212.654 435.092 214.155 432.642 215.115C430.312 216.016 427.682 216.496 424.934 216.496ZM412.086 204.549C411.907 204.549 411.847 204.549 411.787 204.549C411.249 204.669 410.831 204.849 410.592 205.149C410.353 205.389 410.233 205.63 410.233 205.93C410.233 205.99 410.233 206.23 410.413 206.65C411.369 208.992 413.221 210.913 415.851 212.354C418.54 213.854 421.587 214.575 424.874 214.575C427.384 214.575 429.774 214.155 431.925 213.254C434.076 212.414 435.809 211.093 437.064 209.412C438.319 207.731 438.977 205.69 438.977 203.348C438.977 200.046 437.901 197.465 435.75 195.483C433.539 193.442 430.372 192.242 426.308 191.821C422.245 191.401 419.436 190.5 417.763 189.12C416.03 187.679 415.193 185.878 415.193 183.716C415.193 181.375 416.209 179.574 418.121 178.313C419.914 177.173 422.304 176.572 425.173 176.572C427.563 176.572 429.535 177.052 431.148 177.953C432.702 178.854 434.076 180.234 435.092 181.975C435.272 182.336 435.511 182.576 435.809 182.756C436.467 183.116 437.244 183.116 437.722 182.816C438.14 182.516 438.379 182.155 438.379 181.675C438.379 181.255 438.2 180.775 437.901 180.234C436.527 178.013 434.853 176.332 432.881 175.131C430.909 173.991 428.459 173.39 425.591 173.39C422.902 173.39 420.452 173.81 418.301 174.651C416.209 175.492 414.536 176.632 413.341 178.193C412.146 179.694 411.608 181.435 411.608 183.536C411.608 186.538 412.743 189 415.074 190.981C417.464 193.022 420.81 194.223 424.993 194.643C428.4 195.003 430.969 195.964 432.702 197.525C434.435 199.146 435.331 201.127 435.331 203.468C435.331 205.93 434.256 207.911 432.104 209.352C430.073 210.673 427.623 211.393 424.814 211.393C422.364 211.393 420.153 210.853 418.121 209.832C416.03 208.751 414.655 207.431 413.879 205.87C413.699 205.449 413.4 205.149 413.042 204.909C412.863 204.669 412.444 204.549 412.086 204.549Z" fill="white"/>
<path d="M470.708 214.21C470.171 213.669 469.932 213.009 469.932 212.228V175.787C469.932 174.946 470.171 174.286 470.708 173.745C471.246 173.205 471.904 172.965 472.68 172.965C473.517 172.965 474.174 173.205 474.712 173.745C475.25 174.286 475.489 174.946 475.489 175.787V191.216H500.348V175.787C500.348 174.946 500.587 174.286 501.125 173.745C501.663 173.205 502.32 172.965 503.097 172.965C503.874 172.965 504.531 173.205 505.069 173.745C505.607 174.286 505.846 174.946 505.846 175.787V212.168C505.846 213.009 505.607 213.669 505.069 214.21C504.531 214.75 503.874 214.99 503.097 214.99C502.32 214.99 501.663 214.75 501.125 214.21C500.587 213.669 500.348 213.009 500.348 212.228V196.199H475.489V212.228C475.489 213.009 475.25 213.669 474.712 214.21C474.174 214.75 473.517 214.99 472.68 214.99C471.904 215.05 471.246 214.75 470.708 214.21Z" fill="white"/>
<path d="M503.097 215.952C502.081 215.952 501.184 215.592 500.467 214.872C499.75 214.151 499.392 213.251 499.392 212.23V197.161H476.445V212.23C476.445 213.251 476.086 214.151 475.429 214.872C474.712 215.592 473.816 215.952 472.74 215.952C471.724 215.952 470.828 215.592 470.111 214.872C469.394 214.151 469.035 213.251 469.035 212.23V175.788C469.035 174.708 469.394 173.807 470.111 173.087C470.828 172.366 471.724 172.066 472.74 172.066C473.816 172.066 474.712 172.426 475.429 173.147C476.146 173.867 476.505 174.768 476.505 175.848V190.317H499.452V175.788C499.452 174.708 499.81 173.807 500.527 173.087C501.244 172.366 502.141 172.066 503.156 172.066C504.172 172.066 505.069 172.426 505.786 173.147C506.503 173.867 506.861 174.768 506.861 175.848V212.23C506.861 213.311 506.503 214.211 505.786 214.932C505.009 215.592 504.113 215.952 503.097 215.952ZM475.489 195.24H500.348C500.886 195.24 501.304 195.66 501.304 196.201V212.23C501.304 212.771 501.483 213.191 501.842 213.551C502.2 213.911 502.619 214.091 503.156 214.091C503.694 214.091 504.113 213.911 504.471 213.611C504.83 213.251 504.949 212.831 504.949 212.23V175.788C504.949 175.188 504.77 174.768 504.471 174.408C504.113 174.047 503.694 173.927 503.156 173.927C502.619 173.927 502.2 174.107 501.842 174.468C501.483 174.828 501.304 175.248 501.304 175.788V191.218C501.304 191.758 500.886 192.178 500.348 192.178H475.489C474.951 192.178 474.533 191.758 474.533 191.218V175.788C474.533 175.188 474.353 174.768 474.055 174.408C473.696 174.047 473.278 173.927 472.68 173.927C472.142 173.927 471.724 174.107 471.366 174.468C471.007 174.828 470.828 175.248 470.828 175.788V212.17C470.828 212.71 471.007 213.131 471.366 213.491C471.724 213.851 472.142 214.031 472.68 214.031C473.278 214.031 473.696 213.851 473.995 213.491C474.353 213.131 474.533 212.71 474.533 212.17V196.201C474.533 195.66 474.951 195.24 475.489 195.24Z" fill="white"/>
</g>
<defs>
<clipPath id="clip0">
<rect width="512" height="512" fill="white"/>
</clipPath>
</defs>
</svg>
